# xmcd
#
# Track frame offsets:
#	150
#	17435
#	35426
#	50650
#	66762
#	81442
#	108758
#	120256
#	133039
#	151418
#	166517
#	180147
#	193447
#	206640
#	222244
#	234716
#	251570
#	263948
#	282056
#
# Disc length: 3964 seconds
#
# Revision: 0
# Processed by: cddbd v1.5.2PL0 Copyright (c) Steve Scherf et al.
# Submitted via: EasyCDDAExtractor 11.9.9.666
#
DISCID=040f7a13
DTITLE=El Cazador Novato - Exitos llaneros de siempre
DYEAR=1900
DGENRE=Llaneras
TTITLE0=La Burra de Juan Bimba
TTITLE1=La muerte es lo más seguro
TTITLE2=El presidente soy yo
TTITLE3=Hoy voy a jugar con mi gallo
TTITLE4=Tendrás que mandarlo a hacer
TTITLE5=El matrimonio
TTITLE6=Amor y fé
TTITLE7=Copleros de tiempos idos
TTITLE8=Pájaro mochilero
TTITLE9=Digan lo que digan
TTITLE10=Dos copleros diferentes
TTITLE11=Romance al negro y al blanco
TTITLE12=El campanario
TTITLE13=Las 42 mujeres
TTITLE14=El arpa llora sus notas
TTITLE15=El cazador y yerbantero
TTITLE16=EL pobre no se acomoda
TTITLE17=La Masacre de Vichada
TTITLE18=Mi última
EXTD=
EXTT0=
EXTT1=
EXTT2=
EXTT3=
EXTT4=
EXTT5=
EXTT6=
EXTT7=
EXTT8=
EXTT9=
EXTT10=
EXTT11=
EXTT12=
EXTT13=
EXTT14=
EXTT15=
EXTT16=
EXTT17=
EXTT18=
PLAYORDER=
